<svg width="113" height="113" xmlns="http://www.w3.org/2000/svg" xmlns:xlink="http://www.w3.org/1999/xlink" overflow="hidden"><defs><clipPath id="clip0"><rect x="0" y="0" width="113" height="113"/></clipPath></defs><g clip-path="url(#clip0)"><rect x="0" y="0" width="113" height="113" fill="#FFFFFF" fill-opacity="0"/><text fill="#FFFFFF" font-family="Aptos,Aptos_MSFontService,sans-serif" font-weight="400" font-size="16" transform="matrix(1 0 0 1 37.9715 -11)">Cone</text><path d="M13.5 80.5001C13.5 73.8726 32.9756 68.5 57 68.5 81.0244 68.5 100.5 73.8726 100.5 80.5001 100.5 87.1275 81.0244 92.5002 57 92.5002 32.9756 92.5002 13.5 87.1275 13.5 80.5001Z" stroke="#262626" stroke-width="2.99118" stroke-miterlimit="8" fill="#96DCF8" fill-rule="evenodd"/><path d="M13.5 79.5 31.3184 28.5 82.6816 28.5 100.5 79.5" stroke="#262626" stroke-width="2.99118" stroke-linecap="round" stroke-linejoin="round" stroke-miterlimit="10" fill="#96DCF8" fill-rule="evenodd"/><path d="M30.5 29C30.5 23.7533 42.3644 19.5 57 19.5 71.6357 19.5 83.5001 23.7533 83.5001 29 83.5001 34.2468 71.6357 38.5001 57 38.5001 42.3644 38.5001 30.5 34.2468 30.5 29Z" stroke="#262626" stroke-width="2.99118" stroke-miterlimit="8" fill="#46B1E1" fill-rule="evenodd"/></g></svg>