<svg width="113" height="113" xmlns="http://www.w3.org/2000/svg" xmlns:xlink="http://www.w3.org/1999/xlink" overflow="hidden"><defs><clipPath id="clip0"><rect x="0" y="0" width="113" height="113"/></clipPath></defs><g clip-path="url(#clip0)"><rect x="0" y="0" width="113" height="113" fill="#FFFFFF" fill-opacity="0"/><text fill="#FFFFFF" font-family="Aptos,Aptos_MSFontService,sans-serif" font-weight="400" font-size="16" transform="matrix(1 0 0 1 32.0988 -11)">Sphere</text><path d="M19.5 59C19.5 38.2894 36.2893 21.5 56.9999 21.5 77.7106 21.5 94.4999 38.2894 94.4999 59 94.4999 79.7107 77.7106 96.5 56.9999 96.5 36.2893 96.5 19.5 79.7107 19.5 59Z" stroke="#262626" stroke-width="2.99118" stroke-miterlimit="8" fill="#96DCF8" fill-rule="evenodd"/><path d="M71.5 39.5C74.5916 42.9859 77.6833 46.472 78.8691 50.6386 80.055 54.8054 79.335 59.6526 78.615 64.5" stroke="#262626" stroke-width="2.99118" stroke-linecap="round" stroke-linejoin="round" stroke-miterlimit="10" fill="#96DCF8" fill-rule="evenodd"/><path d="M43.6965 78.4075C40.2134 75.3432 36.7302 72.2789 35.0059 68.2808 33.2814 64.2826 33.3156 59.3505 33.3498 54.4184" stroke="#262626" stroke-width="2.99118" stroke-linecap="round" stroke-linejoin="round" stroke-miterlimit="10" fill="#96DCF8" fill-rule="evenodd"/></g></svg>