<svg width="113" height="113" xmlns="http://www.w3.org/2000/svg" xmlns:xlink="http://www.w3.org/1999/xlink" overflow="hidden"><defs><clipPath id="clip0"><rect x="0" y="0" width="113" height="113"/></clipPath></defs><g clip-path="url(#clip0)"><rect x="0" y="0" width="113" height="113" fill="#FFFFFF" fill-opacity="0"/><text fill="#FFFFFF" font-family="Aptos,Aptos_MSFontService,sans-serif" font-weight="400" font-size="16" transform="matrix(1 0 0 1 19.1936 -11)">Bevel Gear</text><path d="M13.5 71C13.5 64.0964 32.9756 58.5 57 58.5 81.0244 58.5 100.5 64.0964 100.5 71 100.5 77.9036 81.0244 83.5 57 83.5 32.9756 83.5 13.5 77.9036 13.5 71Z" stroke="#E8E8E8" stroke-width="2.99118" stroke-miterlimit="8" fill="#C04F15" fill-rule="evenodd"/><path d="M13.5 70.5 31.3184 40.5 82.6816 40.5 100.5 70.5" stroke="#E8E8E8" stroke-width="2.99118" stroke-linecap="round" stroke-linejoin="round" stroke-miterlimit="10" fill="#C04F15" fill-rule="evenodd"/><path d="M30.5 40C30.5 34.7533 42.3644 30.5 57 30.5 71.6357 30.5 83.5001 34.7533 83.5001 40 83.5001 45.2467 71.6357 49.5001 57 49.5001 42.3644 49.5001 30.5 45.2467 30.5 40Z" stroke="#E8E8E8" stroke-width="2.99118" stroke-miterlimit="8" fill="#E97132" fill-rule="evenodd"/><path d="M45.5 39.5001C45.5 37.2909 50.6487 35.5 56.9999 35.5 63.3512 35.5 68.4999 37.2909 68.4999 39.5001 68.4999 41.7092 63.3512 43.5001 56.9999 43.5001 50.6487 43.5001 45.5 41.7092 45.5 39.5001Z" stroke="#E8E8E8" stroke-width="2.99118" stroke-miterlimit="8" fill="#C00000" fill-rule="evenodd"/><path d="M56.5 49.5 56.5417 83.2451" stroke="#E8E8E8" stroke-width="2.99118" stroke-linecap="round" stroke-linejoin="round" stroke-miterlimit="10" fill="none" fill-rule="evenodd"/><path d="M0 0 6.23034 31.246" stroke="#E8E8E8" stroke-width="2.99118" stroke-linecap="round" stroke-linejoin="round" stroke-miterlimit="10" fill="none" fill-rule="evenodd" transform="matrix(-1 0 0 1 44.7303 50.5)"/><path d="M0 0 14.5931 31.7725" stroke="#E8E8E8" stroke-width="2.99118" stroke-linecap="round" stroke-linejoin="round" stroke-miterlimit="10" fill="none" fill-rule="evenodd" transform="matrix(-1 0 0 1 35.093 46.5)"/><path d="M70.5 51.5 76.7303 82.7461" stroke="#E8E8E8" stroke-width="2.99118" stroke-linecap="round" stroke-linejoin="round" stroke-miterlimit="10" fill="none" fill-rule="evenodd"/><path d="M78.9478 47.3956 89.9891 77.2814" stroke="#E8E8E8" stroke-width="2.99118" stroke-linecap="round" stroke-linejoin="round" stroke-miterlimit="10" fill="none" fill-rule="evenodd"/></g></svg>